<svg width="25" height="24" viewBox="0 0 25 24" fill="none" xmlns="http://www.w3.org/2000/svg">
<path d="M10.5 12C9.4 12 8.45833 11.6083 7.675 10.825C6.89167 10.0417 6.5 9.1 6.5 8C6.5 6.9 6.89167 5.95833 7.675 5.175C8.45833 4.39167 9.4 4 10.5 4C11.6 4 12.5417 4.39167 13.325 5.175C14.1083 5.95833 14.5 6.9 14.5 8C14.5 9.1 14.1083 10.0417 13.325 10.825C12.5417 11.6083 11.6 12 10.5 12ZM2.5 20V17.2C2.5 16.65 2.64167 16.1333 2.925 15.65C3.20833 15.1667 3.6 14.8 4.1 14.55C4.95 14.1167 5.90833 13.75 6.975 13.45C8.04167 13.15 9.21667 13 10.5 13H10.85C10.95 13 11.05 13.0167 11.15 13.05C11.0167 13.35 10.9042 13.6625 10.8125 13.9875C10.7208 14.3125 10.65 14.65 10.6 15H10.5C9.31667 15 8.25417 15.15 7.3125 15.45C6.37083 15.75 5.6 16.05 5 16.35C4.85 16.4333 4.72917 16.55 4.6375 16.7C4.54583 16.85 4.5 17.0167 4.5 17.2V18H10.8C10.9 18.35 11.0333 18.6958 11.2 19.0375C11.3667 19.3792 11.55 19.7 11.75 20H2.5ZM16.5 21L16.2 19.5C16 19.4167 15.8125 19.3292 15.6375 19.2375C15.4625 19.1458 15.2833 19.0333 15.1 18.9L13.65 19.35L12.65 17.65L13.8 16.65C13.7667 16.4167 13.75 16.2 13.75 16C13.75 15.8 13.7667 15.5833 13.8 15.35L12.65 14.35L13.65 12.65L15.1 13.1C15.2833 12.9667 15.4625 12.8542 15.6375 12.7625C15.8125 12.6708 16 12.5833 16.2 12.5L16.5 11H18.5L18.8 12.5C19 12.5833 19.1875 12.675 19.3625 12.775C19.5375 12.875 19.7167 13 19.9 13.15L21.35 12.65L22.35 14.4L21.2 15.4C21.2333 15.6 21.25 15.8083 21.25 16.025C21.25 16.2417 21.2333 16.45 21.2 16.65L22.35 17.65L21.35 19.35L19.9 18.9C19.7167 19.0333 19.5375 19.1458 19.3625 19.2375C19.1875 19.3292 19 19.4167 18.8 19.5L18.5 21H16.5ZM17.5 18C18.05 18 18.5208 17.8042 18.9125 17.4125C19.3042 17.0208 19.5 16.55 19.5 16C19.5 15.45 19.3042 14.9792 18.9125 14.5875C18.5208 14.1958 18.05 14 17.5 14C16.95 14 16.4792 14.1958 16.0875 14.5875C15.6958 14.9792 15.5 15.45 15.5 16C15.5 16.55 15.6958 17.0208 16.0875 17.4125C16.4792 17.8042 16.95 18 17.5 18ZM10.5 10C11.05 10 11.5208 9.80417 11.9125 9.4125C12.3042 9.02083 12.5 8.55 12.5 8C12.5 7.45 12.3042 6.97917 11.9125 6.5875C11.5208 6.19583 11.05 6 10.5 6C9.95 6 9.47917 6.19583 9.0875 6.5875C8.69583 6.97917 8.5 7.45 8.5 8C8.5 8.55 8.69583 9.02083 9.0875 9.4125C9.47917 9.80417 9.95 10 10.5 10Z" fill="white"/>
</svg>
