<svg width="25" height="24" viewBox="0 0 25 24" fill="none" xmlns="http://www.w3.org/2000/svg">
<mask id="mask0_2006_529" style="mask-type:alpha" maskUnits="userSpaceOnUse" x="0" y="0" width="25" height="24">
<rect x="0.5" width="24" height="24" fill="#D9D9D9"/>
</mask>
<g mask="url(#mask0_2006_529)">
<mask id="mask1_2006_529" style="mask-type:alpha" maskUnits="userSpaceOnUse" x="0" y="0" width="25" height="24">
<rect x="0.5" width="24" height="24" fill="#D9D9D9"/>
</mask>
<g mask="url(#mask1_2006_529)">
<path d="M5.80775 21.5C5.30258 21.5 4.875 21.325 4.525 20.975C4.175 20.625 4 20.1974 4 19.6922V6.30773C4 5.80257 4.175 5.37498 4.525 5.02498C4.875 4.67498 5.30258 4.49998 5.80775 4.49998H7.19225V3.15374C7.19225 2.93457 7.26567 2.75157 7.4125 2.60473C7.55933 2.45807 7.74233 2.38474 7.9615 2.38474C8.18083 2.38474 8.36383 2.45807 8.5105 2.60473C8.65733 2.75157 8.73075 2.93457 8.73075 3.15374V4.49998H16.3077V3.13474C16.3077 2.9219 16.3795 2.74365 16.523 2.59998C16.6667 2.45648 16.8449 2.38474 17.0577 2.38474C17.2706 2.38474 17.4487 2.45648 17.5922 2.59998C17.7359 2.74365 17.8077 2.9219 17.8077 3.13474V4.49998H19.1923C19.6974 4.49998 20.125 4.67498 20.475 5.02498C20.825 5.37498 21 5.80257 21 6.30773V19.6922C21 20.1974 20.825 20.625 20.475 20.975C20.125 21.325 19.6974 21.5 19.1923 21.5H5.80775ZM5.80775 20H19.1923C19.2692 20 19.3398 19.9679 19.4038 19.9037C19.4679 19.8397 19.5 19.7692 19.5 19.6922V10.3077H5.5V19.6922C5.5 19.7692 5.53208 19.8397 5.59625 19.9037C5.66025 19.9679 5.73075 20 5.80775 20ZM5.5 8.80773H19.5V6.30773C19.5 6.23073 19.4679 6.16023 19.4038 6.09623C19.3398 6.03207 19.2692 5.99998 19.1923 5.99998H5.80775C5.73075 5.99998 5.66025 6.03207 5.59625 6.09623C5.53208 6.16023 5.5 6.23073 5.5 6.30773V8.80773ZM12.5 14.077C12.2552 14.077 12.0465 13.9907 11.874 13.8182C11.7017 13.6459 11.6155 13.4372 11.6155 13.1922C11.6155 12.9474 11.7017 12.7387 11.874 12.5662C12.0465 12.3939 12.2552 12.3077 12.5 12.3077C12.7448 12.3077 12.9535 12.3939 13.126 12.5662C13.2983 12.7387 13.3845 12.9474 13.3845 13.1922C13.3845 13.4372 13.2983 13.6459 13.126 13.8182C12.9535 13.9907 12.7448 14.077 12.5 14.077ZM8.5 14.077C8.25517 14.077 8.0465 13.9907 7.874 13.8182C7.70167 13.6459 7.6155 13.4372 7.6155 13.1922C7.6155 12.9474 7.70167 12.7387 7.874 12.5662C8.0465 12.3939 8.25517 12.3077 8.5 12.3077C8.74483 12.3077 8.9535 12.3939 9.126 12.5662C9.29833 12.7387 9.3845 12.9474 9.3845 13.1922C9.3845 13.4372 9.29833 13.6459 9.126 13.8182C8.9535 13.9907 8.74483 14.077 8.5 14.077ZM16.5 14.077C16.2552 14.077 16.0465 13.9907 15.874 13.8182C15.7017 13.6459 15.6155 13.4372 15.6155 13.1922C15.6155 12.9474 15.7017 12.7387 15.874 12.5662C16.0465 12.3939 16.2552 12.3077 16.5 12.3077C16.7448 12.3077 16.9535 12.3939 17.126 12.5662C17.2983 12.7387 17.3845 12.9474 17.3845 13.1922C17.3845 13.4372 17.2983 13.6459 17.126 13.8182C16.9535 13.9907 16.7448 14.077 16.5 14.077ZM12.5 18C12.2552 18 12.0465 17.9137 11.874 17.7412C11.7017 17.5689 11.6155 17.3603 11.6155 17.1155C11.6155 16.8705 11.7017 16.6618 11.874 16.4895C12.0465 16.317 12.2552 16.2307 12.5 16.2307C12.7448 16.2307 12.9535 16.317 13.126 16.4895C13.2983 16.6618 13.3845 16.8705 13.3845 17.1155C13.3845 17.3603 13.2983 17.5689 13.126 17.7412C12.9535 17.9137 12.7448 18 12.5 18ZM8.5 18C8.25517 18 8.0465 17.9137 7.874 17.7412C7.70167 17.5689 7.6155 17.3603 7.6155 17.1155C7.6155 16.8705 7.70167 16.6618 7.874 16.4895C8.0465 16.317 8.25517 16.2307 8.5 16.2307C8.74483 16.2307 8.9535 16.317 9.126 16.4895C9.29833 16.6618 9.3845 16.8705 9.3845 17.1155C9.3845 17.3603 9.29833 17.5689 9.126 17.7412C8.9535 17.9137 8.74483 18 8.5 18ZM16.5 18C16.2552 18 16.0465 17.9137 15.874 17.7412C15.7017 17.5689 15.6155 17.3603 15.6155 17.1155C15.6155 16.8705 15.7017 16.6618 15.874 16.4895C16.0465 16.317 16.2552 16.2307 16.5 16.2307C16.7448 16.2307 16.9535 16.317 17.126 16.4895C17.2983 16.6618 17.3845 16.8705 17.3845 17.1155C17.3845 17.3603 17.2983 17.5689 17.126 17.7412C16.9535 17.9137 16.7448 18 16.5 18Z" fill="white"/>
</g>
</g>
</svg>
