<svg width="8" height="6" viewBox="0 0 8 6" fill="none" xmlns="http://www.w3.org/2000/svg">
<path d="M2.68748 4.88326L7.31525 0.255494C7.39489 0.175762 7.4881 0.135048 7.59489 0.133352C7.70167 0.131655 7.79663 0.172369 7.87975 0.255494C7.96288 0.338619 8.00444 0.434066 8.00444 0.541834C8.00444 0.649691 7.96288 0.745181 7.87975 0.828306L3.02645 5.68991C2.92958 5.7867 2.81658 5.83509 2.68748 5.83509C2.55837 5.83509 2.44538 5.7867 2.3485 5.68991L0.111897 3.45331C0.0322542 3.37358 -0.00703154 3.27893 -0.00596011 3.16938C-0.00497797 3.05991 0.0370756 2.96362 0.120201 2.88049C0.203326 2.79737 0.298772 2.75581 0.40654 2.75581C0.514397 2.75581 0.609888 2.79737 0.693013 2.88049L2.68748 4.88326Z" fill="white"/>
</svg>
