<svg width="25" height="24" viewBox="0 0 25 24" fill="none" xmlns="http://www.w3.org/2000/svg">
<mask id="mask0_2006_506" style="mask-type:alpha" maskUnits="userSpaceOnUse" x="0" y="0" width="25" height="24">
<rect x="0.5" width="24" height="24" fill="#D9D9D9"/>
</mask>
<g mask="url(#mask0_2006_506)">
<mask id="mask1_2006_506" style="mask-type:alpha" maskUnits="userSpaceOnUse" x="0" y="0" width="25" height="24">
<rect x="0.5" width="24" height="24" fill="#D9D9D9"/>
</mask>
<g mask="url(#mask1_2006_506)">
<path d="M13.75 8.0915V4.40875C13.75 4.14775 13.8369 3.93108 14.0107 3.75875C14.1846 3.58625 14.3999 3.5 14.6568 3.5H20.0972C20.3542 3.5 20.5689 3.58625 20.7413 3.75875C20.9138 3.93108 21 4.14775 21 4.40875V8.0915C21 8.35233 20.9131 8.56892 20.7393 8.74125C20.5654 8.91375 20.3501 9 20.0933 9H14.6528C14.3958 9 14.1811 8.91375 14.0087 8.74125C13.8363 8.56892 13.75 8.35233 13.75 8.0915ZM4 11.6V4.39975C4 4.14475 4.08692 3.93108 4.26075 3.75875C4.43458 3.58625 4.64992 3.5 4.90675 3.5H10.3473C10.6043 3.5 10.8189 3.58625 10.9913 3.75875C11.1638 3.93125 11.25 4.145 11.25 4.4V11.6003C11.25 11.8553 11.1631 12.0689 10.9893 12.2413C10.8154 12.4137 10.6001 12.5 10.3433 12.5H4.90275C4.64575 12.5 4.43108 12.4137 4.25875 12.2413C4.08625 12.0688 4 11.855 4 11.6ZM13.75 19.6V12.3997C13.75 12.1447 13.8369 11.9311 14.0107 11.7587C14.1846 11.5863 14.3999 11.5 14.6568 11.5H20.0972C20.3542 11.5 20.5689 11.5863 20.7413 11.7587C20.9138 11.9312 21 12.145 21 12.4V19.6003C21 19.8552 20.9131 20.0689 20.7393 20.2413C20.5654 20.4138 20.3501 20.5 20.0933 20.5H14.6528C14.3958 20.5 14.1811 20.4138 14.0087 20.2413C13.8363 20.0688 13.75 19.855 13.75 19.6ZM4 19.5913V15.9085C4 15.6477 4.08692 15.4311 4.26075 15.2587C4.43458 15.0863 4.64992 15 4.90675 15H10.3473C10.6043 15 10.8189 15.0863 10.9913 15.2587C11.1638 15.4311 11.25 15.6477 11.25 15.9085V19.5913C11.25 19.8523 11.1631 20.0689 10.9893 20.2413C10.8154 20.4138 10.6001 20.5 10.3433 20.5H4.90275C4.64575 20.5 4.43108 20.4138 4.25875 20.2413C4.08625 20.0689 4 19.8523 4 19.5913ZM5.5 11H9.75V5H5.5V11ZM15.25 19H19.5V13H15.25V19ZM15.25 7.5H19.5V5H15.25V7.5ZM5.5 19H9.75V16.5H5.5V19Z" fill="white"/>
</g>
</g>
</svg>
