<svg width="24" height="24" viewBox="0 0 24 24" fill="none" xmlns="http://www.w3.org/2000/svg">
<mask id="mask0_2040_1200" style="mask-type:alpha" maskUnits="userSpaceOnUse" x="0" y="0" width="24" height="24">
<rect width="24" height="24" fill="#D9D9D9"/>
</mask>
<g mask="url(#mask0_2040_1200)">
<path d="M12.1982 16.077C13.3314 16.077 14.2938 15.6804 15.0855 14.8872C15.8772 14.0941 16.273 13.1309 16.273 11.9978C16.273 10.8646 15.8764 9.90217 15.0832 9.1105C14.2901 8.31883 13.3269 7.923 12.1938 7.923C11.0606 7.923 10.0982 8.31958 9.3065 9.11275C8.51483 9.90592 8.119 10.8691 8.119 12.0023C8.119 13.1354 8.51558 14.0978 9.30875 14.8895C10.1019 15.6812 11.0651 16.077 12.1982 16.077ZM12.196 14.7C11.446 14.7 10.8085 14.4375 10.2835 13.9125C9.7585 13.3875 9.496 12.75 9.496 12C9.496 11.25 9.7585 10.6125 10.2835 10.0875C10.8085 9.5625 11.446 9.3 12.196 9.3C12.946 9.3 13.5835 9.5625 14.1085 10.0875C14.6335 10.6125 14.896 11.25 14.896 12C14.896 12.75 14.6335 13.3875 14.1085 13.9125C13.5835 14.4375 12.946 14.7 12.196 14.7ZM12.196 19C10.0908 19 8.1655 18.4384 6.42 17.3152C4.6745 16.1922 3.28125 14.7148 2.24025 12.8828C2.15692 12.7391 2.096 12.5943 2.0575 12.4485C2.01917 12.3027 2 12.153 2 11.9995C2 11.846 2.01917 11.6965 2.0575 11.551C2.096 11.4055 2.15692 11.2609 2.24025 11.1172C3.28125 9.28525 4.6745 7.80775 6.42 6.68475C8.1655 5.56158 10.0908 5 12.196 5C14.3012 5 16.2265 5.56158 17.972 6.68475C19.7175 7.80775 21.1107 9.28525 22.1517 11.1172C22.2351 11.2609 22.296 11.4057 22.3345 11.5515C22.3728 11.6973 22.392 11.847 22.392 12.0005C22.392 12.154 22.3728 12.3035 22.3345 12.449C22.296 12.5945 22.2351 12.7391 22.1517 12.8828C21.1107 14.7148 19.7175 16.1922 17.972 17.3152C16.2265 18.4384 14.3012 19 12.196 19ZM12.196 17.5C14.0793 17.5 15.8085 17.0042 17.3835 16.0125C18.9585 15.0208 20.1627 13.6833 20.996 12C20.1627 10.3167 18.9585 8.97917 17.3835 7.9875C15.8085 6.99583 14.0793 6.5 12.196 6.5C10.3127 6.5 8.5835 6.99583 7.0085 7.9875C5.4335 8.97917 4.22933 10.3167 3.396 12C4.22933 13.6833 5.4335 15.0208 7.0085 16.0125C8.5835 17.0042 10.3127 17.5 12.196 17.5Z" fill="#7CAD39"/>
</g>
</svg>
