<svg width="24" height="24" viewBox="0 0 24 24" fill="none" xmlns="http://www.w3.org/2000/svg">
<mask id="mask0_2071_1590" style="mask-type:alpha" maskUnits="userSpaceOnUse" x="0" y="0" width="24" height="24">
<rect width="24" height="24" transform="matrix(-1 0 0 1 24 0)" fill="#D9D9D9"/>
</mask>
<g mask="url(#mask0_2071_1590)">
<mask id="mask1_2071_1590" style="mask-type:alpha" maskUnits="userSpaceOnUse" x="0" y="0" width="24" height="24">
<rect width="24" height="24" transform="matrix(-1 0 0 1 24 0)" fill="#D9D9D9"/>
</mask>
<g mask="url(#mask1_2071_1590)">
<path d="M7.3885 12.75H18.75C18.9628 12.75 19.141 12.6781 19.2845 12.5345C19.4282 12.391 19.5 12.2128 19.5 12C19.5 11.7871 19.4282 11.609 19.2845 11.4655C19.141 11.3218 18.9628 11.25 18.75 11.25H7.3885L10.6807 7.95771C10.8294 7.80887 10.9028 7.63479 10.901 7.43546C10.899 7.23612 10.8256 7.05888 10.6807 6.90371C10.5256 6.74871 10.3474 6.66862 10.1462 6.66346C9.94492 6.65829 9.76667 6.73329 9.6115 6.88846L5.13275 11.3672C5.03908 11.4609 4.97308 11.5596 4.93475 11.6635C4.89625 11.7673 4.877 11.8795 4.877 12C4.877 12.1205 4.89625 12.2326 4.93475 12.3365C4.97308 12.4403 5.03908 12.539 5.13275 12.6327L9.6115 17.1115C9.76033 17.2601 9.93692 17.3335 10.1413 17.3317C10.3458 17.3297 10.5256 17.2512 10.6807 17.0962C10.8256 16.941 10.9006 16.7654 10.9057 16.5692C10.9109 16.373 10.8359 16.1974 10.6807 16.0422L7.3885 12.75Z" fill="#5E9149"/>
</g>
</g>
</svg>
