<svg width="24" height="24" viewBox="0 0 24 24" fill="none" xmlns="http://www.w3.org/2000/svg">
<mask id="mask0_19_1949" style="mask-type:alpha" maskUnits="userSpaceOnUse" x="0" y="0" width="24" height="24">
<rect y="0.811401" width="24" height="22.8" fill="#D9D9D9"/>
</mask>
<g mask="url(#mask0_19_1949)">
<path d="M11.2693 12.4459C11.5141 12.4459 11.7227 12.3597 11.8952 12.1874C12.0676 12.0149 12.1538 11.8062 12.1538 11.5614C12.1538 11.3166 12.0676 11.1079 11.8952 10.9354C11.7227 10.7631 11.5141 10.6769 11.2693 10.6769C11.0244 10.6769 10.8157 10.7631 10.6432 10.9354C10.4709 11.1079 10.3847 11.3166 10.3847 11.5614C10.3847 11.8062 10.4709 12.0149 10.6432 12.1874C10.8157 12.3597 11.0244 12.4459 11.2693 12.4459ZM7.26925 20.0614V18.5614L13.4905 17.7344C13.5673 17.7281 13.633 17.6961 13.6875 17.6384C13.742 17.5807 13.7693 17.5134 13.7693 17.4364V6.2249C13.7693 5.91073 13.6703 5.6344 13.4723 5.3959C13.2741 5.15757 13.0263 5.02174 12.729 4.9884L7.577 4.3114V2.8114L12.9423 3.51915C13.6179 3.62032 14.1747 3.92348 14.6125 4.42865C15.0503 4.93382 15.2693 5.52423 15.2693 6.1999V17.4057C15.2693 17.8505 15.1205 18.2428 14.823 18.5827C14.5257 18.9223 14.1546 19.1242 13.7098 19.1884L7.26925 20.0614ZM7.26925 18.5614H17.2693V4.61915C17.2693 4.52932 17.2404 4.45557 17.1827 4.3979C17.1251 4.34024 17.0513 4.3114 16.9615 4.3114H7.577C7.48717 4.3114 7.41342 4.34024 7.35575 4.3979C7.29808 4.45557 7.26925 4.52932 7.26925 4.61915V18.5614ZM4.75 20.0614C4.53717 20.0614 4.359 19.9896 4.2155 19.8459C4.07183 19.7024 4 19.5242 4 19.3114C4 19.0986 4.07183 18.9204 4.2155 18.7769C4.359 18.6332 4.53717 18.5614 4.75 18.5614H5.76925V4.61915C5.76925 4.12048 5.94583 3.69448 6.299 3.34115C6.65233 2.98798 7.07833 2.8114 7.577 2.8114H16.9615C17.4602 2.8114 17.8862 2.98798 18.2395 3.34115C18.5927 3.69448 18.7693 4.12048 18.7693 4.61915V18.5614H19.7885C20.0013 18.5614 20.1795 18.6332 20.323 18.7769C20.4667 18.9204 20.5385 19.0986 20.5385 19.3114C20.5385 19.5242 20.4667 19.7024 20.323 19.8459C20.1795 19.9896 20.0013 20.0614 19.7885 20.0614H4.75Z" fill="white"/>
</g>
</svg>
