<svg width="116" height="21" viewBox="0 0 116 21" fill="none" xmlns="http://www.w3.org/2000/svg">
<g clip-path="url(#clip0_2055_302)">
<path d="M5.44653 0.476824H7.61743L12.8017 12.6636H9.83959L8.81233 10.0818H4.18436L3.19128 12.6636H0.296387L5.44653 0.476824ZM6.4567 4.02287L5.00979 7.81027H7.92176L6.45777 4.02287H6.4567Z" fill="white"/>
<path d="M13.9967 0.476824H17.969L20.7123 8.42949H20.7464L23.5057 0.476824H27.4609V12.6636H24.8352V3.31628H24.801L21.6701 12.6636H19.6669L16.6545 3.31628H16.6214V12.6636H13.9956V0.476824H13.9967Z" fill="white"/>
<path d="M33.8059 0.476824H35.9768L41.1611 12.6636H38.199L37.1717 10.0818H32.5437L31.5507 12.6636H28.6558L33.8059 0.476824ZM34.8161 4.02287L33.3692 7.81027H36.2811L34.8171 4.02287H34.8161Z" fill="white"/>
<path d="M42.3564 0.476824H46.9684C47.5739 0.476824 48.1494 0.536889 48.694 0.65702C49.2375 0.777151 49.7149 0.978097 50.1249 1.25986C50.5339 1.54162 50.8596 1.91949 51.1009 2.39564C51.3422 2.8718 51.4629 3.4659 51.4629 4.17686C51.4629 5.03743 51.244 5.76914 50.8062 6.37198C50.3684 6.97481 49.7287 7.35596 48.8873 7.5165L51.9167 12.6636H48.7698L46.2786 7.7917H44.9822V12.6636H42.3564V0.476824ZM44.9822 5.52014H46.5306C46.7666 5.52014 47.0154 5.5114 47.2791 5.49393C47.5429 5.47645 47.781 5.42513 47.9946 5.33885C48.2082 5.25257 48.3843 5.11825 48.5253 4.93368C48.6652 4.75021 48.7357 4.49247 48.7357 4.15938C48.7357 3.84923 48.6737 3.60241 48.5509 3.41894C48.4271 3.23547 48.2701 3.09459 48.08 2.99739C47.8889 2.90019 47.67 2.83357 47.4233 2.79972C47.1766 2.76586 46.9353 2.74839 46.6993 2.74839H44.9822V5.52014Z" fill="white"/>
<path d="M63.3113 7.96426C63.3113 8.68723 63.2045 9.35231 62.992 9.96061C62.7785 10.5689 62.4624 11.0964 62.0406 11.5442C61.6188 11.9919 61.0956 12.3414 60.4666 12.5948C59.8377 12.847 59.1147 12.9737 58.2957 12.9737C57.4767 12.9737 56.7356 12.847 56.1077 12.5948C55.4788 12.3425 54.9545 11.9919 54.5337 11.5442C54.113 11.0964 53.7959 10.5689 53.5823 9.96061C53.3687 9.35231 53.262 8.68723 53.262 7.96426V0.476824H55.8878V7.8616C55.8878 8.24056 55.9465 8.59003 56.065 8.9122C56.1825 9.23328 56.348 9.51176 56.5616 9.74656C56.7751 9.98136 57.0303 10.1659 57.3272 10.297C57.6241 10.4291 57.9476 10.4946 58.2946 10.4946C58.6417 10.4946 58.962 10.4291 59.2536 10.297C59.5451 10.1648 59.7982 9.98136 60.0107 9.74656C60.2242 9.51176 60.3897 9.23328 60.5072 8.9122C60.6247 8.59112 60.6834 8.24056 60.6834 7.8616V0.476824H63.3092V7.96426H63.3113Z" fill="white"/>
<path d="M71.7176 3.45498C71.504 3.17977 71.2157 2.97555 70.8505 2.8434C70.4853 2.71126 70.1404 2.64573 69.8158 2.64573C69.6247 2.64573 69.4282 2.66867 69.2264 2.71454C69.0245 2.7604 68.8334 2.83248 68.654 2.92968C68.4746 3.02688 68.3283 3.15684 68.2162 3.31628C68.1041 3.47682 68.0475 3.67231 68.0475 3.90165C68.0475 4.26969 68.182 4.55035 68.4511 4.74475C68.7202 4.94023 69.0598 5.10623 69.4698 5.24384C69.8788 5.38144 70.3198 5.51905 70.7907 5.65665C71.2616 5.79426 71.7027 5.98974 72.1116 6.24202C72.5206 6.49429 72.8602 6.83284 73.1303 7.25767C73.3994 7.6825 73.534 8.25039 73.534 8.96134C73.534 9.6723 73.4101 10.2293 73.1634 10.7338C72.9168 11.2384 72.5825 11.6577 72.1618 11.9908C71.7411 12.3239 71.2531 12.5707 70.6978 12.7313C70.1426 12.8918 69.5563 12.9726 68.9391 12.9726C68.1649 12.9726 67.4463 12.8525 66.7842 12.6111C66.1222 12.3698 65.505 11.9799 64.9326 11.4404L66.8013 9.3403C67.0704 9.70725 67.41 9.99119 67.82 10.1921C68.229 10.3931 68.6529 10.4936 69.0907 10.4936C69.3043 10.4936 69.52 10.4673 69.7389 10.416C69.9578 10.3647 70.1543 10.2872 70.3284 10.1834C70.5024 10.0797 70.6423 9.9486 70.7491 9.78806C70.8559 9.62752 70.9093 9.4375 70.9093 9.22017C70.9093 8.85323 70.7715 8.56273 70.4971 8.35086C70.2216 8.13899 69.8767 7.95771 69.4624 7.80918C69.047 7.66065 68.5985 7.51104 68.1158 7.36142C67.6332 7.2118 67.1847 7.01195 66.7693 6.75858C66.3539 6.5063 66.009 6.17321 65.7346 5.7604C65.4591 5.34759 65.3224 4.80263 65.3224 4.12553C65.3224 3.44843 65.4484 2.89801 65.7014 2.40438C65.9545 1.91075 66.2909 1.49794 66.7116 1.16485C67.1323 0.831757 67.6171 0.582759 68.1671 0.415668C68.717 0.249669 69.283 0.165577 69.8671 0.165577C70.5398 0.165577 71.1912 0.262774 71.8191 0.45826C72.4469 0.653745 73.014 0.980283 73.519 1.43896L71.7176 3.4528V3.45498Z" fill="white"/>
<path d="M85.5366 7.96424C85.5366 8.68721 85.4298 9.3523 85.2173 9.96059C85.0037 10.5689 84.6876 11.0964 84.2659 11.5441C83.8451 11.9919 83.3208 12.3414 82.6919 12.5947C82.0629 12.847 81.34 12.9737 80.521 12.9737C79.7019 12.9737 78.9609 12.847 78.333 12.5947C77.7051 12.3425 77.1797 11.9919 76.759 11.5441C76.3383 11.0964 76.0211 10.5689 75.8076 9.96059C75.594 9.3523 75.4883 8.68721 75.4883 7.96424V0.476805H78.1141V7.86158C78.1141 8.24054 78.1728 8.59001 78.2913 8.91218C78.4088 9.23326 78.5743 9.51174 78.7879 9.74654C79.0014 9.98134 79.2567 10.1659 79.5535 10.297C79.8504 10.4291 80.1729 10.4946 80.521 10.4946C80.8691 10.4946 81.1884 10.4291 81.4799 10.297C81.7714 10.1648 82.0245 9.98134 82.237 9.74654C82.4495 9.51174 82.6161 9.23326 82.7335 8.91218C82.851 8.5911 82.9108 8.24054 82.9108 7.86158V0.476805H85.5366V7.96424Z" fill="white"/>
<path d="M87.9265 0.476805H90.5523V12.6635H87.9265V0.476805Z" fill="white"/>
<path d="M95.2476 2.85212H91.8477V0.476805H101.273V2.85212H97.8734V12.6635H95.2476V2.85212Z" fill="white"/>
<path d="M102.703 0.476805H110.798V2.95587H105.328V5.22744H110.495V7.7065H105.328V10.1856H111.101V12.6646H102.702V0.476805H102.703Z" fill="white"/>
<path d="M92.1432 19.3635H94.2757V19.7993H91.6787V15.1207H92.1443V19.3625L92.1432 19.3635Z" fill="white"/>
<path d="M94.831 19.7993H94.2886L96.2779 15.1207H96.7296L98.719 19.7993H98.1765L97.6725 18.5707H95.334L94.83 19.7993H94.831ZM95.5091 18.1349H97.4921L96.5033 15.6766L95.508 18.1349H95.5091Z" fill="white"/>
<path d="M100.368 19.7993H99.9021V15.5576H98.3708V15.1218H101.899V15.5576H100.368V19.7993Z" fill="white"/>
<path d="M102.092 19.7993H101.55L103.539 15.1207H103.991L105.98 19.7993H105.438L104.934 18.5707H102.595L102.091 19.7993H102.092ZM102.771 18.1349H104.754L103.766 15.6766L102.77 18.1349H102.771Z" fill="white"/>
<path d="M108.857 18.9278L110.401 15.1218H111.112V19.8004H110.646V15.7563H110.634L108.98 19.8004H108.734L107.08 15.7563H107.067V19.8004H106.602V15.1218H107.312L108.856 18.9278H108.857Z" fill="white"/>
</g>
<defs>
<clipPath id="clip0_2055_302">
<rect width="115.704" height="20.4659" fill="white" transform="translate(0.296387 0.166668)"/>
</clipPath>
</defs>
</svg>
