<svg width="50" height="9" viewBox="0 0 50 9" fill="none" xmlns="http://www.w3.org/2000/svg">
<g clip-path="url(#clip0_2006_486)">
<path d="M2.31679 0.136391H3.29336L5.62552 5.49557H4.293L3.83089 4.36024H1.749L1.30226 5.49557H0L2.31679 0.136391ZM2.77121 1.69578L2.12032 3.36131H3.43027L2.77169 1.69578H2.77121Z" fill="white"/>
<path d="M6.16308 0.136391H7.95003L9.18408 3.63362H9.19945L10.4407 0.136391H12.22V5.49557H11.0388V1.38506H11.0234L9.61496 5.49557H8.7138L7.3587 1.38506H7.34381V5.49557H6.1626V0.136391H6.16308Z" fill="white"/>
<path d="M15.0742 0.136391H16.0508L18.383 5.49557H17.0504L16.5883 4.36024H14.5064L14.0597 5.49557H12.7574L15.0742 0.136391ZM15.5287 1.69578L14.8778 3.36131H16.1877L15.5291 1.69578H15.5287Z" fill="white"/>
<path d="M18.9207 0.136391H20.9953C21.2677 0.136391 21.5266 0.162805 21.7716 0.215633C22.0161 0.268461 22.2308 0.356828 22.4153 0.480734C22.5993 0.60464 22.7458 0.770809 22.8543 0.980201C22.9629 1.18959 23.0172 1.45085 23.0172 1.7635C23.0172 2.14194 22.9187 2.46371 22.7218 2.72881C22.5248 2.99391 22.2371 3.16152 21.8586 3.23212L23.2213 5.49557H21.8057L20.685 3.35315H20.1019V5.49557H18.9207V0.136391ZM20.1019 2.35421H20.7984C20.9046 2.35421 21.0165 2.35037 21.1351 2.34269C21.2538 2.335 21.3609 2.31243 21.457 2.27449C21.553 2.23655 21.6323 2.17748 21.6957 2.09632C21.7586 2.01563 21.7903 1.90229 21.7903 1.75581C21.7903 1.61942 21.7625 1.51088 21.7072 1.4302C21.6515 1.34952 21.5809 1.28756 21.4954 1.24482C21.4094 1.20208 21.3109 1.17278 21.2 1.1579C21.089 1.14301 20.9804 1.13532 20.8743 1.13532H20.1019V2.35421Z" fill="white"/>
<path d="M28.3471 3.42903C28.3471 3.74696 28.2991 4.03943 28.2035 4.30693C28.1074 4.57444 27.9652 4.8064 27.7755 5.00331C27.5857 5.20021 27.3504 5.35389 27.0674 5.46531C26.7845 5.57625 26.4593 5.63196 26.0908 5.63196C25.7224 5.63196 25.389 5.57625 25.1066 5.46531C24.8236 5.35437 24.5878 5.20021 24.3985 5.00331C24.2093 4.8064 24.0666 4.57444 23.9705 4.30693C23.8745 4.03943 23.8264 3.74696 23.8264 3.42903V0.136391H25.0076V3.38388C25.0076 3.55053 25.034 3.70421 25.0874 3.84589C25.1402 3.98708 25.2147 4.10955 25.3107 4.2128C25.4068 4.31606 25.5216 4.39722 25.6552 4.45485C25.7887 4.51297 25.9342 4.54178 26.0904 4.54178C26.2465 4.54178 26.3906 4.51297 26.5217 4.45485C26.6529 4.39674 26.7667 4.31606 26.8623 4.2128C26.9584 4.10955 27.0328 3.98708 27.0857 3.84589C27.1385 3.70469 27.1649 3.55053 27.1649 3.38388V0.136391H28.3461V3.42903H28.3471Z" fill="white"/>
<path d="M32.1288 1.44605C32.0327 1.32503 31.903 1.23522 31.7387 1.17711C31.5744 1.119 31.4193 1.09018 31.2732 1.09018C31.1872 1.09018 31.0989 1.10027 31.0081 1.12044C30.9173 1.14061 30.8313 1.1723 30.7506 1.21505C30.6699 1.25779 30.6041 1.31494 30.5537 1.38506C30.5032 1.45566 30.4778 1.54162 30.4778 1.64248C30.4778 1.80432 30.5383 1.92775 30.6593 2.01323C30.7804 2.0992 30.9331 2.1722 31.1176 2.23271C31.3016 2.29322 31.5 2.35373 31.7118 2.41425C31.9236 2.47476 32.122 2.56073 32.306 2.67166C32.49 2.7826 32.6427 2.93148 32.7643 3.1183C32.8853 3.30512 32.9459 3.55486 32.9459 3.8675C32.9459 4.18015 32.8901 4.42508 32.7792 4.64696C32.6682 4.86884 32.5179 5.05325 32.3286 5.19973C32.1393 5.34621 31.9198 5.45475 31.67 5.52535C31.4202 5.59594 31.1565 5.63148 30.8789 5.63148C30.5306 5.63148 30.2073 5.57865 29.9095 5.47252C29.6117 5.36638 29.334 5.19493 29.0765 4.95768L29.9172 4.03415C30.0382 4.19552 30.191 4.32038 30.3754 4.40875C30.5594 4.49712 30.7501 4.5413 30.9471 4.5413C31.0431 4.5413 31.1402 4.52978 31.2386 4.5072C31.3371 4.48463 31.4255 4.45053 31.5038 4.40491C31.5821 4.35928 31.645 4.30165 31.6931 4.23106C31.7411 4.16046 31.7651 4.07689 31.7651 3.98132C31.7651 3.81996 31.7032 3.69221 31.5797 3.59904C31.4558 3.50587 31.3006 3.42615 31.1142 3.36083C30.9274 3.29552 30.7256 3.22972 30.5085 3.16393C30.2914 3.09813 30.0896 3.01024 29.9028 2.89883C29.7159 2.78789 29.5607 2.64141 29.4373 2.45987C29.3134 2.27833 29.2519 2.03869 29.2519 1.74093C29.2519 1.44317 29.3086 1.20112 29.4224 0.984044C29.5362 0.766969 29.6876 0.585432 29.8768 0.438954C30.0661 0.292476 30.2842 0.182977 30.5316 0.109498C30.7789 0.0364991 31.0335 -0.000480652 31.2963 -0.000480652C31.5989 -0.000480652 31.8919 0.0422621 32.1744 0.128228C32.4568 0.214194 32.7119 0.35779 32.9391 0.559498L32.1288 1.44509V1.44605Z" fill="white"/>
<path d="M38.3453 3.42902C38.3453 3.74695 38.2972 4.03942 38.2017 4.30693C38.1056 4.57443 37.9634 4.80639 37.7737 5.0033C37.5844 5.2002 37.3485 5.35389 37.0656 5.46531C36.7827 5.57624 36.4575 5.63195 36.089 5.63195C35.7206 5.63195 35.3872 5.57624 35.1048 5.46531C34.8223 5.35437 34.586 5.2002 34.3967 5.0033C34.2074 4.80639 34.0648 4.57443 33.9687 4.30693C33.8726 4.03942 33.8251 3.74695 33.8251 3.42902V0.136383H35.0063V3.38388C35.0063 3.55052 35.0327 3.70421 35.086 3.84588C35.1389 3.98708 35.2133 4.10954 35.3094 4.2128C35.4055 4.31605 35.5203 4.39722 35.6538 4.45485C35.7874 4.51296 35.9324 4.54177 36.089 4.54177C36.2456 4.54177 36.3892 4.51296 36.5204 4.45485C36.6515 4.39674 36.7654 4.31605 36.861 4.2128C36.9566 4.10954 37.0315 3.98708 37.0843 3.84588C37.1372 3.70469 37.1641 3.55052 37.1641 3.38388V0.136383H38.3453V3.42902Z" fill="white"/>
<path d="M39.4203 0.136383H40.6015V5.49556H39.4203V0.136383Z" fill="white"/>
<path d="M42.7137 1.18094H41.1842V0.136383H45.4244V1.18094H43.8949V5.49556H42.7137V1.18094Z" fill="white"/>
<path d="M46.0675 0.136383H49.7091V1.22656H47.2482V2.2255H49.5727V3.31568H47.2482V4.40586H49.8451V5.49604H46.067V0.136383H46.0675Z" fill="white"/>
</g>
<defs>
<clipPath id="clip0_2006_486">
<rect width="50" height="9" fill="white"/>
</clipPath>
</defs>
</svg>
