<svg width="25" height="24" viewBox="0 0 25 24" fill="none" xmlns="http://www.w3.org/2000/svg">
<mask id="mask0_2006_524" style="mask-type:alpha" maskUnits="userSpaceOnUse" x="0" y="0" width="25" height="24">
<rect x="0.5" width="24" height="24" fill="#D9D9D9"/>
</mask>
<g mask="url(#mask0_2006_524)">
<path d="M6.80775 21.5C6.30258 21.5 5.875 21.325 5.525 20.975C5.175 20.625 5 20.1974 5 19.6923V4.30775C5 3.80258 5.175 3.375 5.525 3.025C5.875 2.675 6.30258 2.5 6.80775 2.5H18.1923C18.6974 2.5 19.125 2.675 19.475 3.025C19.825 3.375 20 3.80258 20 4.30775V19.6923C20 20.1974 19.825 20.625 19.475 20.975C19.125 21.325 18.6974 21.5 18.1923 21.5H6.80775ZM6.80775 20H18.1923C18.2692 20 18.3398 19.9679 18.4038 19.9038C18.4679 19.8398 18.5 19.7693 18.5 19.6923V4.30775C18.5 4.23075 18.4679 4.16025 18.4038 4.09625C18.3398 4.03208 18.2692 4 18.1923 4H16.5V10.5577L14.25 9.2115L12 10.5577V4H6.80775C6.73075 4 6.66025 4.03208 6.59625 4.09625C6.53208 4.16025 6.5 4.23075 6.5 4.30775V19.6923C6.5 19.7693 6.53208 19.8398 6.59625 19.9038C6.66025 19.9679 6.73075 20 6.80775 20Z" fill="white"/>
</g>
</svg>
