<svg width="25" height="24" viewBox="0 0 25 24" fill="none" xmlns="http://www.w3.org/2000/svg">
<mask id="mask0_2006_517" style="mask-type:alpha" maskUnits="userSpaceOnUse" x="0" y="0" width="25" height="24">
<rect x="0.5" width="24" height="24" fill="#D9D9D9"/>
</mask>
<g mask="url(#mask0_2006_517)">
<mask id="mask1_2006_517" style="mask-type:alpha" maskUnits="userSpaceOnUse" x="0" y="0" width="25" height="24">
<rect x="0.5" width="24" height="24" fill="#D9D9D9"/>
</mask>
<g mask="url(#mask1_2006_517)">
<path d="M7.5 14.75H14.075C14.325 14.75 14.5125 14.6721 14.6375 14.5162C14.7625 14.3602 14.825 14.1888 14.825 14.0017C14.825 13.8147 14.7625 13.6427 14.6375 13.4855C14.5125 13.3285 14.325 13.25 14.075 13.25H7.5C7.2875 13.25 7.10942 13.3219 6.96575 13.4658C6.82192 13.6096 6.75 13.7878 6.75 14.0003C6.75 14.2129 6.82192 14.391 6.96575 14.5345C7.10942 14.6782 7.2875 14.75 7.5 14.75ZM7.5 10.75H11.5C11.7125 10.75 11.8906 10.6781 12.0343 10.5342C12.1781 10.3904 12.25 10.2122 12.25 9.99975C12.25 9.78708 12.1781 9.609 12.0343 9.4655C11.8906 9.32183 11.7125 9.25 11.5 9.25H7.5C7.2875 9.25 7.10942 9.32192 6.96575 9.46575C6.82192 9.60958 6.75 9.78775 6.75 10.0003C6.75 10.2129 6.82192 10.391 6.96575 10.5345C7.10942 10.6782 7.2875 10.75 7.5 10.75ZM4.80775 18.5C4.31058 18.5 3.885 18.323 3.531 17.969C3.177 17.615 3 17.1894 3 16.6923V7.30775C3 6.81058 3.177 6.385 3.531 6.031C3.885 5.677 4.31058 5.5 4.80775 5.5H20.1923C20.6894 5.5 21.115 5.677 21.469 6.031C21.823 6.385 22 6.81058 22 7.30775V8.94225C22 9.15475 21.9281 9.33292 21.7843 9.47675C21.6404 9.62042 21.4622 9.69225 21.2498 9.69225C21.0371 9.69225 20.859 9.62042 20.7155 9.47675C20.5718 9.33292 20.5 9.15475 20.5 8.94225V7.30775C20.5 7.21792 20.4712 7.14417 20.4135 7.0865C20.3558 7.02883 20.2821 7 20.1923 7H4.80775C4.71792 7 4.64417 7.02883 4.5865 7.0865C4.52883 7.14417 4.5 7.21792 4.5 7.30775V16.6923C4.5 16.7821 4.52883 16.8558 4.5865 16.9135C4.64417 16.9712 4.71792 17 4.80775 17H11.3942C11.6067 17 11.7849 17.0719 11.9288 17.2158C12.0724 17.3596 12.1442 17.5378 12.1442 17.7503C12.1442 17.9629 12.0724 18.141 11.9288 18.2845C11.7849 18.4282 11.6067 18.5 11.3942 18.5H4.80775ZM22.7268 12.127C22.8038 12.2047 22.8423 12.2901 22.8423 12.3832C22.8423 12.4764 22.8033 12.5619 22.7255 12.6398L21.8845 13.4808L20.6152 12.2115L21.4565 11.3707C21.5345 11.2927 21.6203 11.2537 21.7138 11.2537C21.8071 11.2537 21.8923 11.2922 21.9693 11.3692L22.7268 12.127ZM21.3038 14.0808L15.146 20.2385C15.0713 20.3128 14.9873 20.3686 14.8938 20.4057C14.8003 20.4429 14.7036 20.4615 14.6038 20.4615H14.0385C13.9358 20.4615 13.8461 20.423 13.7693 20.346C13.6923 20.2692 13.6538 20.1795 13.6538 20.077V19.5115C13.6538 19.4118 13.6724 19.3153 13.7098 19.2218C13.7469 19.1283 13.8027 19.0441 13.877 18.9693L20.0345 12.8115L21.3038 14.0808Z" fill="white"/>
</g>
</g>
</svg>
