<svg width="25" height="24" viewBox="0 0 25 24" fill="none" xmlns="http://www.w3.org/2000/svg">
<mask id="mask0_2006_536" style="mask-type:alpha" maskUnits="userSpaceOnUse" x="0" y="0" width="25" height="24">
<rect x="0.5" width="24" height="24" fill="#D9D9D9"/>
</mask>
<g mask="url(#mask0_2006_536)">
<mask id="mask1_2006_536" style="mask-type:alpha" maskUnits="userSpaceOnUse" x="0" y="0" width="25" height="24">
<rect x="0.5" width="24" height="24" fill="#D9D9D9"/>
</mask>
<g mask="url(#mask1_2006_536)">
<path d="M5.80775 20.5C5.31058 20.5 4.885 20.323 4.531 19.969C4.177 19.615 4 19.1894 4 18.6923V5.30775C4 4.81058 4.177 4.385 4.531 4.031C4.885 3.677 5.31058 3.5 5.80775 3.5H10.2578C10.3206 2.94483 10.5629 2.47275 10.9848 2.08375C11.4064 1.69458 11.9131 1.5 12.5048 1.5C13.0964 1.5 13.6032 1.69458 14.025 2.08375C14.4468 2.47275 14.6859 2.94483 14.7423 3.5H19.1923C19.6894 3.5 20.115 3.677 20.469 4.031C20.823 4.385 21 4.81058 21 5.30775V18.6923C21 19.1894 20.823 19.615 20.469 19.969C20.115 20.323 19.6894 20.5 19.1923 20.5H5.80775ZM5.80775 19H19.1923C19.2692 19 19.3398 18.9679 19.4038 18.9038C19.4679 18.8398 19.5 18.7693 19.5 18.6923V5.30775C19.5 5.23075 19.4679 5.16025 19.4038 5.09625C19.3398 5.03208 19.2692 5 19.1923 5H5.80775C5.73075 5 5.66025 5.03208 5.59625 5.09625C5.53208 5.16025 5.5 5.23075 5.5 5.30775V18.6923C5.5 18.7693 5.53208 18.8398 5.59625 18.9038C5.66025 18.9679 5.73075 19 5.80775 19ZM8.5 16.6345H13.5C13.7125 16.6345 13.8906 16.5626 14.0343 16.4187C14.1781 16.2751 14.25 16.0969 14.25 15.8842C14.25 15.6718 14.1781 15.4937 14.0343 15.35C13.8906 15.2065 13.7125 15.1348 13.5 15.1348H8.5C8.2875 15.1348 8.10942 15.2066 7.96575 15.3503C7.82192 15.4941 7.75 15.6723 7.75 15.885C7.75 16.0975 7.82192 16.2756 7.96575 16.4193C8.10942 16.5628 8.2875 16.6345 8.5 16.6345ZM8.5 12.75H16.5C16.7125 12.75 16.8906 12.6781 17.0343 12.5343C17.1781 12.3904 17.25 12.2122 17.25 11.9998C17.25 11.7871 17.1781 11.609 17.0343 11.4655C16.8906 11.3218 16.7125 11.25 16.5 11.25H8.5C8.2875 11.25 8.10942 11.3219 7.96575 11.4658C7.82192 11.6096 7.75 11.7878 7.75 12.0003C7.75 12.2129 7.82192 12.391 7.96575 12.5345C8.10942 12.6782 8.2875 12.75 8.5 12.75ZM8.5 8.86525H16.5C16.7125 8.86525 16.8906 8.79342 17.0343 8.64975C17.1781 8.50592 17.25 8.32767 17.25 8.115C17.25 7.9025 17.1781 7.72442 17.0343 7.58075C16.8906 7.43725 16.7125 7.3655 16.5 7.3655H8.5C8.2875 7.3655 8.10942 7.43742 7.96575 7.58125C7.82192 7.72492 7.75 7.90308 7.75 8.11575C7.75 8.32825 7.82192 8.50633 7.96575 8.65C8.10942 8.7935 8.2875 8.86525 8.5 8.86525ZM12.5 4.34625C12.7167 4.34625 12.8958 4.27542 13.0375 4.13375C13.1792 3.99208 13.25 3.81292 13.25 3.59625C13.25 3.37958 13.1792 3.20042 13.0375 3.05875C12.8958 2.91708 12.7167 2.84625 12.5 2.84625C12.2833 2.84625 12.1042 2.91708 11.9625 3.05875C11.8208 3.20042 11.75 3.37958 11.75 3.59625C11.75 3.81292 11.8208 3.99208 11.9625 4.13375C12.1042 4.27542 12.2833 4.34625 12.5 4.34625Z" fill="white"/>
</g>
</g>
</svg>
